<svg version="1.1" id="Layer_1" xmlns="http://www.w3.org/2000/svg" xmlns:xlink="http://www.w3.org/1999/xlink" x="0" y="0" viewBox="0 0 690 611" xml:space="preserve"><style>.st0,.st1,.st2,.st3{clip-path:url(#SVGID_2_);fill:#f04f38}.st1,.st2,.st3{fill:#f27063}.st2,.st3{fill:#7dbfb5}.st3{fill:#f5b829}</style><defs><path id="SVGID_1_" d="M101 35h518v564H101z"/></defs><clipPath id="SVGID_2_"><use xlink:href="#SVGID_1_" overflow="visible"/></clipPath><path class="st0" d="M389.35 168.54c13.99-12.22 45.43 45.5-68.7 45.5-5.67 0-36.47 18.11-37.4 55.45-.07 2.98-13.09-46.38 5.95-62.36 19.05-15.98 24.3-30.26 29.13-33.31 1.69-3.25 21.23-19.26 71.02-5.28"/><path class="st0" d="M322.54 217.89c-2.69-8.49-42.32 30.06-34.88 51.72-13.65 7.21-27.03 24.25-45.06 53.49-9.13 19.95-22.01 58.03-18.81 69.67 1.42 10.23 8.1 28.46 16.95 31.28-3.65-.4-17.71-33.06 14.56-61.48 45.15-39.74 72.34-28.58 86.18-51.18 17.05-27.85 4.09-63.22-18.53-79.08.01.01-6.09-5.07-.41-14.42"/><path class="st0" d="M352.75 292.03c-4.49 23.4-13.76 32.19-38.39 41.26 0 0 63.41 47.32 111.63 34.24-1.19-.01-76.28-26.66-73.24-75.5"/><path class="st0" d="M423.54 362.45s-19.18-5.13-27.98-13.63c-1.24-1.19 14.83-55.47 53.97-55.47 9.41 0 13.86-.96 17.08-4.31 3.22-3.35-3.22 7.41-16.09 13.15-5.56 2.02-34.7 40.65-26.98 60.26"/><path class="st0" d="M471.2 292.69s-1.57-12.8-16.53-12.8c-1.67 0 6.09-16.97 10.21-16.97 2.55 0 15.97 7.89 15.6 10.4-.37 2.51 4.09-5.05 11.33-6.2 7.24-1.15 37.23 17.57 28.22 28.44-.74.9-1.86 3.59-7.24 2.15-5.38-1.43-23.21-8.61-41.59-5.02"/><path class="st0" d="M465.12 288.07c1.93-2.93-8.9-7.51-9.93-5.05 0 0-1.56 4.21-11.43 7.61 0 0 15.05 2.48 21.36-2.56M365.29 378.42c-2.14-3.93-2.31 6.44-22.18-5.12-14.25-8.78-46.27-8.1-66.94-4.8-20.68 3.29-38.72 22.65-37.1 22.32 0 0-3.41 29.68 7.3 31.57 2.89.47 40.66-48.33 116.05-24.8 6.86 3.28 5.04-13.32 2.87-19.17"/><path class="st0" d="M368.07 377.14c-.83-1.25 9.17 14.02-2.34 24.04-2.45 2.14 13.88 14.99 13.08 26.93s1.04 25.1 5.23 25.47c4.19.36 25.28-14.27 23.44-27.43-1.84-13.16-12.99-17.04-13.02-23.35-.04-6.31 10.44-21.99 6.3-26.18-4.14-4.19-17.56-10.61-23.86-4.98-6.3 5.61-8.83 5.5-8.83 5.5M363.44 189.34s20.75 1.78 19.52 21.06c-.32 15.32 15.11 50.7 33.28 52.52-7.75-2.22-19.84-33.37-14.4-73.58 9.43-10.7-2.81-22.05-6.07-21.06-4.83 1.46-32.33 22.43-32.33 22.43"/><path class="st0" d="M406.98 223.08c-4.54 5.73 2.38 37.19 14.94 42.81 3.28 1.47 36.36 31.89 34.58 44.51-1.68 11.93-.31 31.6-6.59 38.46-12.41 9.35-8.04 14.26 1.31 4.83 0 0 22.01-17.53 17.62-36.12-4.39-18.58-26.41-60.22-26.77-59.49-1.73 3.52-32.76-21.2-35.09-35M490.55 293.91s9.69 17.14-1.21 20.24c-10.9 3.09-7.06-20.24-7.06-20.24h1.41s-1.78 17.93 4.38 16.67c6.16-1.26.26-16.91-.75-16.67-1.01.23 3.23 0 3.23 0M365.78 408.68s-16.78 24.79-9.26 30.86c7.52 6.07 19.04-16.03 16.88-20.19-2.16-4.17-3.88-5.82-2.59-1.49 1.28 4.33-6.54 19.66-11.56 14.97-3.43-3.2 4.58-17.26 6.11-21.55.32-.92.42-2.6.42-2.6M472.34 327.04c1.72-.57-7.45 20.31-9.87 19.63 0 0-7.9 28.43-1.1 33.68 0 0 .66-20.9 6.63-32.45.45-.87-2.57 20.11 9.48 24.96 1.56.63 2.23-2 2.23-2s-11.25-13.25-9.22-25.52c.46-2.76.92 12.51 16.17 20.7 1.53.82 6.07-.25 5.44-2.02-.62-1.77-20.7-11.42-17.95-22.64.3-1.22.68 10.93 20.03 11.79 1.14.05 1.57-1.24 1.57-1.24-7.52-2.09-13.55-6.77-18.18-13.89 0 .01-2.32-7.08-5.23-11M387.25 164.61s-14.15-4.6-18-3.79 8.76-5.42 7.63-19.23c0 0 18.41-3.39 18.41 11.51 0 2.03-8.08.36-8.04 11.51"/><path class="st0" d="M409.86 157.56c18.99-3.04 16.53-24.92 16.53-26.27 0-38.57-62.74-19.23-63.59-17.06-.84 2.16 12.61 25.76 14.85 24.37 6.65-4.11 19.05 3.73 19.05 3.73s5.32 8.19 2.24 13.06c0 0 5.06 3.11 10.92 2.17"/><path class="st0" d="M402.93 162.11c-2.86-1.08 26.88 4.14 30.74-18.76 6.53-38.75-28.2-47.49-49.79-44.89-32.67 3.25-57.41-5.7-71.71-24.15-7.06-9.11-15.9-7.94-27.94-7.31-13.59-3.47-16.18-11.34-16.18-18.48 0-1.01 8.42 12.86 26.26 9.95 7.21-2.26 20.44-1.65 31.51 5.08 7.11 5.58 15.19 17.04 40.76 13 10.78-.44 17.54-6.24 18-7.4 1.26 1.62-6.3-4.2-17.51-3.39-18.77 2.71-20.42 2.86-52.71-18.69-6.57-4.38-23.99.49-24.89 1.9-3.56 5.58 7.42-15.98 42.3-13.81 14.17.88 6.31 12.22 38.4 6.23 97.68-18.24 129.92 60.97 118.89 109.91-9.54 42.39-59.82 50.04-86.13 10.81"/><path class="st1" d="M440.17 598.38c54.23-65.71 10.13-139.64 68.72-199.36 10.25-14.1 64.3-39.06 78.47-78.83 14.17-39.77-3.52-74.48-3.52-74.48s66.23 83.56 16.89 145.51c-60.81 60.4-32.3 124.16-19.98 148.39 25.64 40.21 18.21 59.38 18.21 59.38l-158.79-.61z"/><path class="st2" d="M572.84 59.04s24.12 15.46 16.71 66.76c-7.41 51.3 12.16 69.73 12.16 69.73s-37.85-11.55-39.38-45.87 17.9-67.6 2.3-94.67l8.21 4.05z"/><path class="st3" d="M537.68 132.64s-25.22 29.29-1.53 102.82c23.69 73.52 4.9 105.96 4.9 105.96s43.19-27.25 35.32-78.2c-7.88-50.95-41.21-94.68-29.76-138.76l-8.93 8.18z"/><path class="st1" d="M389.02 598.59s-14.87-112.6-73.15-137.58c-47.7-18.98-98.08 49.05-155.91-8.12-26.07-32.22-10.44-137.29-10.44-137.29s-89.16 148.86-25.76 204.08c62.79 54.68 126.3 4.72 138.53 48.98 5.41 14.11-4.95 29.93-4.95 29.93h131.68z"/><path class="st3" d="M182.99 423.25s-16-53.82 20.69-110.94 58.23-84.01 47.74-140.46c-10.48-56.45-41.73-71.8-41.73-71.8s34.94 44.03 5.63 102.04c-29.31 58.02-55.67 74.03-51.9 144.43 3.79 70.4 19.57 76.73 19.57 76.73"/><path class="st2" d="M180.92 58.95s-12.49 14.33-3.22 52.38c9.28 38.06-.29 54.14-.29 54.14s20.83-12.85 18.39-39.01c-2.44-26.16-16.94-49.27-10.52-71.46l-4.36 3.95z"/><path class="st0" d="M389.35 168.54c13.99-12.22 45.43 45.5-68.7 45.5-5.67 0-36.47 18.11-37.4 55.45-.07 2.98-13.09-46.38 5.95-62.36 19.05-15.98 24.3-30.26 29.13-33.31 1.69-3.25 21.23-19.26 71.02-5.28"/><path class="st0" d="M322.54 217.89c-2.69-8.49-42.32 30.06-34.88 51.72-13.65 7.21-27.03 24.25-45.06 53.49-9.13 19.95-22.01 58.03-18.81 69.67 1.42 10.23 8.1 28.46 16.95 31.28-3.65-.4-17.71-33.06 14.56-61.48 45.15-39.74 72.34-28.58 86.18-51.18 17.05-27.85 4.09-63.22-18.53-79.08.01.01-6.09-5.07-.41-14.42"/><path class="st0" d="M352.75 292.03c-4.49 23.4-13.76 32.19-38.39 41.26 0 0 63.41 47.32 111.63 34.24-1.19-.01-76.28-26.66-73.24-75.5"/><path class="st0" d="M423.54 362.45s-19.18-5.13-27.98-13.63c-1.24-1.19 14.83-55.47 53.97-55.47 9.41 0 13.86-.96 17.08-4.31 3.22-3.35-3.22 7.41-16.09 13.15-5.56 2.02-34.7 40.65-26.98 60.26"/><path class="st0" d="M471.2 292.69s-1.57-12.8-16.53-12.8c-1.67 0 6.09-16.97 10.21-16.97 2.55 0 15.97 7.89 15.6 10.4-.37 2.51 4.09-5.05 11.33-6.2 7.24-1.15 37.23 17.57 28.22 28.44-.74.9-1.86 3.59-7.24 2.15-5.38-1.43-23.21-8.61-41.59-5.02"/><path class="st0" d="M465.12 288.07c1.93-2.93-8.9-7.51-9.93-5.05 0 0-1.56 4.21-11.43 7.61 0 0 15.05 2.48 21.36-2.56M365.29 378.42c-2.14-3.93-2.31 6.44-22.18-5.12-14.25-8.78-46.27-8.1-66.94-4.8-20.68 3.29-38.72 22.65-37.1 22.32 0 0-3.41 29.68 7.3 31.57 2.89.47 40.66-48.33 116.05-24.8 6.86 3.28 5.04-13.32 2.87-19.17"/><path class="st0" d="M368.07 377.14c-.83-1.25 9.17 14.02-2.34 24.04-2.45 2.14 13.88 14.99 13.08 26.93s1.04 25.1 5.23 25.47c4.19.36 25.28-14.27 23.44-27.43-1.84-13.16-12.99-17.04-13.02-23.35-.04-6.31 10.44-21.99 6.3-26.18-4.14-4.19-17.56-10.61-23.86-4.98-6.3 5.61-8.83 5.5-8.83 5.5M363.44 189.34s20.75 1.78 19.52 21.06c-.32 15.32 15.11 50.7 33.28 52.52-7.75-2.22-19.84-33.37-14.4-73.58 9.43-10.7-2.81-22.05-6.07-21.06-4.83 1.46-32.33 22.43-32.33 22.43"/><path class="st0" d="M406.98 223.08c-4.54 5.73 2.38 37.19 14.94 42.81 3.28 1.47 36.36 31.89 34.58 44.51-1.68 11.93-.31 31.6-6.59 38.46-12.41 9.35-8.04 14.26 1.31 4.83 0 0 22.01-17.53 17.62-36.12-4.39-18.58-26.41-60.22-26.77-59.49-1.73 3.52-32.76-21.2-35.09-35M490.55 293.91s9.69 17.14-1.21 20.24c-10.9 3.09-7.06-20.24-7.06-20.24h1.41s-1.78 17.93 4.38 16.67c6.16-1.26.26-16.91-.75-16.67-1.01.23 3.23 0 3.23 0M365.78 408.68s-16.78 24.79-9.26 30.86c7.52 6.07 19.04-16.03 16.88-20.19-2.16-4.17-3.88-5.82-2.59-1.49 1.28 4.33-6.54 19.66-11.56 14.97-3.43-3.2 4.58-17.26 6.11-21.55.32-.92.42-2.6.42-2.6M472.34 327.04c1.72-.57-7.45 20.31-9.87 19.63 0 0-7.9 28.43-1.1 33.68 0 0 .66-20.9 6.63-32.45.45-.87-2.57 20.11 9.48 24.96 1.56.63 2.23-2 2.23-2s-11.25-13.25-9.22-25.52c.46-2.76.92 12.51 16.17 20.7 1.53.82 6.07-.25 5.44-2.02-.62-1.77-20.7-11.42-17.95-22.64.3-1.22.68 10.93 20.03 11.79 1.14.05 1.57-1.24 1.57-1.24-7.52-2.09-13.55-6.77-18.18-13.89 0 .01-2.32-7.08-5.23-11M387.25 164.61s-14.15-4.6-18-3.79 8.76-5.42 7.63-19.23c0 0 18.41-3.39 18.41 11.51 0 2.03-8.08.36-8.04 11.51"/><path class="st0" d="M409.86 157.56c18.99-3.04 16.53-24.92 16.53-26.27 0-38.57-62.74-19.23-63.59-17.06-.84 2.16 12.61 25.76 14.85 24.37 6.65-4.11 19.05 3.73 19.05 3.73s5.32 8.19 2.24 13.06c0 0 5.06 3.11 10.92 2.17"/><path class="st0" d="M402.93 162.11c-2.86-1.08 26.88 4.14 30.74-18.76 6.53-38.75-28.2-47.49-49.79-44.89-32.67 3.25-57.41-5.7-71.71-24.15-7.06-9.11-15.9-7.94-27.94-7.31-13.59-3.47-16.18-11.34-16.18-18.48 0-1.01 8.42 12.86 26.26 9.95 7.21-2.26 20.44-1.65 31.51 5.08 7.11 5.58 15.19 17.04 40.76 13 10.78-.44 17.54-6.24 18-7.4 1.26 1.62-6.3-4.2-17.51-3.39-18.77 2.71-20.42 2.86-52.71-18.69-6.57-4.38-23.99.49-24.89 1.9-3.56 5.58 7.42-15.98 42.3-13.81 14.17.88 6.31 12.22 38.4 6.23 97.68-18.24 129.92 60.97 118.89 109.91-9.54 42.39-59.82 50.04-86.13 10.81"/></svg>