<?xml version="1.0" encoding="utf-8"?>
<!-- Generator: Adobe Illustrator 23.0.1, SVG Export Plug-In . SVG Version: 6.00 Build 0)  -->
<svg version="1.1" id="Layer_1" xmlns="http://www.w3.org/2000/svg" xmlns:xlink="http://www.w3.org/1999/xlink" x="0px" y="0px"
	 viewBox="0 0 197.37 50.21" style="enable-background:new 0 0 197.37 50.21;" xml:space="preserve">
<style type="text/css">
	.st0{fill:#EC472E;}
	.st1{fill:#44D9E6;}
	.st2{fill:none;}
	.st3{fill:#231F20;}
	.st4{font-family:'BodoniSvtyTwoITCTT-BookIta';}
	.st5{font-size:32.4908px;}
	.st6{font-family:'BodoniSvtyTwoITCTT-Book';}
</style>
<circle class="st0" cx="174.55" cy="26.54" r="21.07"/>
<path class="st1" d="M12.12,24.94c-0.15,7.18,2.84,12.54,4.75,14.91c3.81,4.73,8.43,7.13,10.94,8.25l1.44,0.2
	c0,0-4.59,0.34-6.27,0.19c-1.78-0.16-3.39-0.6-5.1-1.18c-1.79-0.61-5.02-1.71-8.23-4.52c-0.79-0.69-4.53-4.05-6.46-9.81
	c-0.26-0.78-1-3.12-1.17-6.28c-0.2-3.61,0.46-6.33,0.59-6.86C4.56,12.18,10.2,8.02,11.84,6.9c0.55-0.38,2.56-1.71,5.49-2.74
	c5.05-1.78,9.24-1.27,9.23-1.18c0,0-0.01,0.01-0.01,0.01C26.54,2.98,12.41,11.39,12.12,24.94z"/>
<rect x="18.91" y="16.24" class="st2" width="177.76" height="61.49"/>
<text transform="matrix(1 0 0 1 18.9102 39.3396)"><tspan x="0" y="0" class="st3 st4 st5">Exit </tspan><tspan x="55.95" y="0" class="st3 st6 st5">JULIET</tspan></text>
</svg>
